<svg t="1784100794644" class="icon" viewBox="0 0 1024 1024" version="1.1" xmlns="http://www.w3.org/2000/svg" p-id="11130" width="200" height="200"><path d="M661.333333 469.333333c-23.466667 0-42.666667 19.2-42.666666 42.666667v298.666667c0 46.933333-38.4 85.333333-85.333334 85.333333s-85.333333-38.4-85.333333-85.333333v-32c0-23.466667-19.2-42.666667-42.666667-42.666667s-42.666667 19.2-42.666666 42.666667V810.666667c0 93.866667 76.8 170.666667 170.666666 170.666666s170.666667-76.8 170.666667-170.666666V512c0-23.466667-19.2-42.666667-42.666667-42.666667zM362.666667 554.666667c23.466667 0 42.666667-19.2 42.666666-42.666667V213.333333c0-46.933333 38.4-85.333333 85.333334-85.333333s85.333333 38.4 85.333333 85.333333v32c0 23.466667 19.2 42.666667 42.666667 42.666667s42.666667-19.2 42.666666-42.666667V213.333333c0-93.866667-76.8-170.666667-170.666666-170.666666s-170.666667 76.8-170.666667 170.666666v298.666667c0 23.466667 19.2 42.666667 42.666667 42.666667z" p-id="11131"></path><path d="M554.666667 661.333333c0-23.466667-19.2-42.666667-42.666667-42.666666H213.333333c-46.933333 0-85.333333-38.4-85.333333-85.333334s38.4-85.333333 85.333333-85.333333h32c23.466667 0 42.666667-19.2 42.666667-42.666667s-19.2-42.666667-42.666667-42.666666H213.333333c-93.866667 0-170.666667 76.8-170.666666 170.666666s76.8 170.666667 170.666666 170.666667h298.666667c23.466667 0 42.666667-19.2 42.666667-42.666667zM810.666667 320H512c-23.466667 0-42.666667 19.2-42.666667 42.666667s19.2 42.666667 42.666667 42.666666h298.666667c46.933333 0 85.333333 38.4 85.333333 85.333334s-38.4 85.333333-85.333333 85.333333h-32c-23.466667 0-42.666667 19.2-42.666667 42.666667s19.2 42.666667 42.666667 42.666666H810.666667c93.866667 0 170.666667-76.8 170.666666-170.666666s-76.8-170.666667-170.666666-170.666667z" p-id="11132"></path></svg>